Coordinates
version=1
nRows=5
nColumns=42
inDegrees=yes

Units are S.I. units (second, meters, Newtons, ...)
If the header above contains a line with 'inDegrees', this indicates whether rotational values are in degrees (yes) or radians (no).

endheader
time	pelvis_tilt	pelvis_list	pelvis_rotation	pelvis_tx	pelvis_ty	pelvis_tz	hip_flexion_r	hip_adduction_r	hip_rotation_r	knee_angle_r	knee_adduction_r	knee_angle_r_beta	ankle_angle_r	subtalar_angle_r	mtp_angle_r	hip_flexion_l	hip_adduction_l	hip_rotation_l	knee_angle_l	knee_adduction_l	knee_angle_l_beta	ankle_angle_l	subtalar_angle_l	mtp_angle_l	lumbar_extension	lumbar_bending	lumbar_rotation	arm_flex_r	arm_add_r	arm_rot_r	elbow_flex_r	pro_sup_r	wrist_flex_r	wrist_dev_r	arm_flex_l	arm_add_l	arm_rot_l	elbow_flex_l	pro_sup_l	wrist_flex_l	wrist_dev_l
      1.16000000	      8.69640876	      0.56534823	     -4.32415748	     -0.25202150	      0.98564894	      0.26900283	     11.43836086	     -5.17792677	     -6.43203114	     46.22152131	      0.90150512	      0.80671773	     16.02187897	     -4.88543385	     -7.54257982	    -13.13391348	      3.54708469	     -8.64604280	      3.88929146	      2.82305239	      0.06788094	     14.54340906	     19.15622257	     -7.54257982	    -18.13943464	      1.54113777	     -3.92960742	    -14.49734957	    -14.91174225	     12.82327787	     36.43939462	     90.00000001	      0.00000000	      0.00000000	     -0.60164447	    -16.57749984	      0.05275072	     45.77717401	     90.00000001	      0.00000000	      0.00000000
      1.17000000	      8.66448178	      0.47379341	     -4.09426419	     -0.23846546	      0.98445472	      0.26919114	     12.24146462	     -4.84618279	     -6.36683685	     42.89868768	      1.34898243	      0.74872334	     15.79428666	     -5.28222947	     -7.54066106	    -14.27539834	      3.47344260	     -8.40353948	      3.34802645	      2.83273209	      0.05843409	     15.08198851	     19.40373211	     -7.54066106	    -18.12018873	      1.70980006	     -4.14704125	    -14.98255135	    -14.55030303	     12.51264261	     36.31145253	     90.00000001	      0.00000000	      0.00000000	      0.13654079	    -16.88736386	     -0.09036008	     46.50332796	     90.00000001	      0.00000000	      0.00000000
      1.18000000	      8.64984954	      0.45607731	     -3.89768405	     -0.22490138	      0.98289680	      0.26935202	     12.91241789	     -4.60275561	     -6.40872940	     39.31774304	      1.66158692	      0.68622407	     15.48987821	     -5.38342070	     -7.53870120	    -15.37022953	      3.49067470	     -8.25878255	      2.93748448	      2.80448261	      0.05126878	     15.69266519	     19.73855424	     -7.53870120	    -18.11637485	      1.79354062	     -4.36595616	    -15.42448429	    -14.20042103	     12.21828653	     36.17551516	     90.00000001	      0.00000000	      0.00000000	      0.85878411	    -17.17523601	     -0.22465883	     47.23791428	     90.00000001	      0.00000000	      0.00000000
      1.19000000	      8.66942671	      0.49878906	     -3.72482957	     -0.21128186	      0.98100766	      0.26964546	     13.43022401	     -4.43343408	     -6.57311016	     35.52302612	      1.88783510	      0.61999377	     15.17132400	     -5.15365821	     -7.53695839	    -16.45563990	      3.56174100	     -8.17424888	      2.63922737	      2.78058566	      0.04606321	     16.38648192	     20.14685859	     -7.53695839	    -18.13981265	      1.78993608	     -4.57649693	    -15.82740858	    -13.82616935	     11.93255276	     36.00907838	     90.00000001	      0.00000000	      0.00000000	      1.57341310	    -17.47468758	     -0.36118235	     47.96734685	     90.00000001	      0.00000000	      0.00000000
      1.20000000	      8.48666951	      0.79425675	     -3.60662998	     -0.19783322	      0.97844805	      0.26984928	     14.16757403	     -4.57500554	     -6.73562699	     31.69431068	      2.10046898	      0.55317008	     14.84535051	     -4.40246202	     -7.53606432	    -17.21530083	      3.94065224	     -8.02723633	      2.48632309	      2.66067515	      0.04339452	     17.18017472	     20.49296137	     -7.53606432	    -17.93736570	      1.52063820	     -4.83695949	    -16.15239563	    -13.44779910	     11.78207651	     35.79356662	     90.00000001	      0.00000000	      0.00000000	      2.25672194	    -17.78560725	     -0.47204504	     48.65187167	     90.00000001	      0.00000000	      0.00000000
